<svg xmlns="http://www.w3.org/2000/svg" version="1.1" width="512" height="512" x="0" y="0" viewBox="0 0 64 64">
    <g>
        <path fill="#d8d6d6" d="M15 28h34v4H15zM16 28c0-7.73 6.27-14 14-14h4c7.73 0 14 6.27 14 14z" opacity="1"/>
        <path fill="#edebeb" d="M18.167 26c.955-5.668 5.897-10 11.833-10h4c5.936 0 10.878 4.332 11.833 10z" opacity="1"/>
        <path fill="#edebeb" d="M16 28c0-7.73 6.27-14 14-14h4c7.73 0 14 6.27 14 14z" opacity="1"/>
        <path fill="#ffffff" d="M18.167 26c.955-5.668 5.897-10 11.833-10h4c5.936 0 10.878 4.332 11.833 10z" opacity="1"/>
        <path fill="#898080" d="M30 48.73c1.6 1.44 3.8 1.61 4.91.37.03-.03.06-.07.09-.1.99-1.24.57-3.34-1-4.73-1.6-1.44-3.8-1.61-4.91-.37-.03.03-.06.07-.09.1-.99 1.24-.57 3.34 1 4.73zM47.13 40l-1.16 13H18.03l-1.16-13h29.31z" opacity="1"/>
        <path fill="#7c6d6d" d="M46.18 40h-7.001c-.667 4.542-1.82 9.095-3.724 13H45.97l1.16-13z" opacity="1"/>
        <path fill="#a36934" d="M34 44.27c1.57 1.39 1.99 3.49 1 4.73 0 0-2-3-3-3s-3-2-3-2c.03-.03.06-.07.09-.1 1.11-1.24 3.31-1.07 4.91.37z" opacity="1"/>
        <path fill="#bc855c" d="M34.91 49.1c-1.11 1.24-3.31 1.07-4.91-.37-1.57-1.39-1.99-3.49-1-4.73 0 0 2 2 3 2s3 3 3 3c-.03.03-.06.07-.09.1z" opacity="1"/>
        <path fill="#af7341" d="m41.75 53-.56 5.21A2.003 2.003 0 0 1 39.2 60H24.8c-1.02 0-1.88-.77-1.99-1.79L22.25 53zM43.59 35.44 43.04 40H20.96l-.51-4.23c1.04-.47 3.9-1.32 8.55.23 6 2 10 0 10 0s3.06-1.53 4.5-.57z" opacity="1"/>
        <path fill="#7c6d6d" d="M42.5 2.25c.68.34.75 1.28.12 1.71L34.43 9.7c-.27.19-.43.49-.43.82V14h-4V8.52c0-.33.16-.63.43-.82l9.08-6.36c.3-.21.69-.24 1.02-.07z" opacity="1"/>
        <path fill="#898080" d="M30 14h4v14h-4z" opacity="1"/>
        <path fill="#604d53" d="M42.62 3.96 34.43 9.7c-.27.19-.43.49-.43.82V14h-2V9.52c0-.33.16-.63.43-.82l8.19-5.74a.99.99 0 0 0-.09-1.69l1.97.98c.68.34.75 1.28.12 1.71z" opacity="1"/>
        <path fill="#7c6d6d" d="M32 14h2v14h-2z" opacity="1"/>
        <path fill="#edebeb" d="m44 32-.41 3.44-.09-.01c-1.44-.96-4.5.57-4.5.57s-4 2-10 0c-4.65-1.55-7.51-.7-8.55-.23L20 32z" opacity="1"/>
        <path fill="#c1aeae" d="M15 30h34v2H15zM47 32l-.82 8h-3.14l.55-4.56L44 32z" opacity="1"/>
        <path fill="#d8d6d6" d="m20.45 35.77.51 4.23h-3.14L17 32h3zM24.8 60h14.4c1.02 0 1.88-.77 1.99-1.79l.56-5.21h3.34l-.82 9.09a1 1 0 0 1-1 .91H20.73a1 1 0 0 1-1-.91L18.91 53h3.34l.56 5.21c.11 1.02.97 1.79 1.99 1.79z" opacity="1"/>
        <path fill="#935c2e" d="M35.455 53c-1.331 2.73-3.032 5.137-5.189 7H39.2c1.02 0 1.88-.77 1.99-1.79l.56-5.21zM43.59 35.44l-.09-.01c-1.018-.678-2.84-.114-3.824.276A71.995 71.995 0 0 1 39.179 40h3.861z" opacity="1"/>
        <path fill="#d3bebe" d="M39.915 32a84.227 84.227 0 0 1-.24 3.706c.984-.39 2.807-.954 3.824-.276l.09.01L44 32z" opacity="1"/>
        <path fill="#c1aeae" d="m41.75 53-.56 5.21A2.003 2.003 0 0 1 39.2 60h-8.934a15.919 15.919 0 0 1-5.127 3H43.27a1 1 0 0 0 1-.91l.82-9.09z" opacity="1"/>
        <path fill="#9e9797" d="M21.099 43.534c-.224-.179-.571-.294-.858-.248-.298.047-.599.18-.782.431-.183.25-.283.544-.248.858l.259 2.324c.033.297.197.595.431.782.224.179.571.293.858.248.298-.047.599-.18.782-.431.183-.25.283-.544.248-.858l-.259-2.324a1.203 1.203 0 0 0-.431-.782z" opacity="1"/>
        <g fill="#472b3c">
            <path d="m15.874 40.089 1.16 13c.045.504.46.887.962.905l.739 8.192A1.996 1.996 0 0 0 20.73 64h22.54c1.039 0 1.896-.78 1.996-1.82l.738-8.186a.997.997 0 0 0 .962-.905l1.16-13a1.001 1.001 0 0 0-.258-.764.99.99 0 0 0-.583-.293L47.903 33H49a1 1 0 0 0 1-1v-4a1 1 0 0 0-1-1h-.051c-.496-7.471-6.475-13.451-13.946-13.949l.001-2.532 8.18-5.733c.59-.403.914-1.068.865-1.779a1.979 1.979 0 0 0-1.104-1.652L40.987.382a1.981 1.981 0 0 0-2.052.14l-9.081 6.361A2.005 2.005 0 0 0 29 8.52v4.531c-7.472.496-13.453 6.477-13.949 13.949H15a1 1 0 0 0-1 1v4a1 1 0 0 0 1 1h1.097l.618 6.033a.984.984 0 0 0-.583.293.997.997 0 0 0-.258.763zm26.861-5.943c-1.721-.2-3.712.725-4.178.958-.037.018-3.75 1.778-9.241-.052-3.742-1.247-6.426-1.025-8.018-.622L21.127 33h21.746zM21.54 36.442c1.177-.347 3.555-.69 7.144.506 2.116.705 4 .942 5.579.942 3.138 0 5.065-.937 5.184-.996.876-.436 2.242-.852 3.051-.762L42.153 39H21.847zM46.037 41l-.981 11H18.944l-.981-11zM20.726 62l-.722-8h20.632l-.441 4.103A1 1 0 0 1 39.2 59H24.8c-.512 0-.94-.386-.996-.897l-.238-2.21a1 1 0 1 0-1.988.214l.238 2.21A2.996 2.996 0 0 0 24.8 61h14.4a2.997 2.997 0 0 0 2.984-2.683L42.648 54h1.347l-.725 8zm24.552-23h-1.11l.72-6h1.005zm1.671-12H35l.003-11.949c6.369.49 11.458 5.58 11.946 11.949zM31 27l.002-12H33v12zm9.084-24.834 1.962.976-8.191 5.741A2.003 2.003 0 0 0 33 10.52V13h-1.997l.001-4.481zM16 29h5a1 1 0 0 0 0-2h-3.949C17.539 20.63 22.63 15.539 29 15.051V27h-4a1 1 0 0 0 0 2h23v2H16zm3.113 4 .72 6h-1.111l-.615-6z" fill="#472b3c" opacity="1"/>
            <path d="M32.902 50.93c.079 0 .158-.002.236-.006 1.004-.054 1.898-.465 2.485-1.123l.084-.094a.974.974 0 0 0 .074-.083c.013-.016.02-.036.033-.052.014-.019.025-.039.037-.059 1.239-1.684.74-4.284-1.182-5.986-1.104-.993-2.5-1.531-3.807-1.451-1.004.054-1.898.465-2.485 1.123a3.452 3.452 0 0 0-.096.107 1.033 1.033 0 0 0-.062.07c-1.341 1.679-.85 4.36 1.112 6.097 1.038.934 2.327 1.457 3.571 1.457zm.128-2.003c-.779.047-1.661-.31-2.367-.945-.711-.63-1.132-1.471-1.186-2.212.758.606 1.678 1.192 2.446 1.229.318.143 1.031.909 1.704 1.8-.21.083-.422.118-.597.128zm-2.06-4.854c.775-.045 1.661.31 2.367.945.49.434.834.969 1.024 1.502-.773-.86-1.603-1.52-2.343-1.52h-.001c-.235-.03-.791-.393-1.385-.877.12-.026.236-.044.338-.05z" fill="#472b3c" opacity="1"/>
        </g>
    </g>
</svg>
